<?xml version="1.0" standalone="no"?>
<!DOCTYPE svg PUBLIC "-//W3C//DTD SVG 20010904//EN"
 "http://www.w3.org/TR/2001/REC-SVG-20010904/DTD/svg10.dtd">
<svg version="1.0" xmlns="http://www.w3.org/2000/svg"
 width="1280.000000pt" height="681.000000pt" viewBox="0 0 1280.000000 681.000000"
 preserveAspectRatio="xMidYMid meet">
<metadata>
Created by potrace 1.15, written by Peter Selinger 2001-2017
</metadata>
<g transform="translate(0.000000,681.000000) scale(0.100000,-0.100000)"
fill="#000000" stroke="none">
<path d="M11025 6676 c-214 -73 -547 -188 -740 -256 -192 -67 -525 -182 -740
-255 -214 -73 -570 -197 -790 -275 -220 -78 -688 -243 -1040 -367 -352 -123
-707 -249 -790 -278 -273 -96 -600 -217 -1665 -613 -575 -214 -1893 -728
-3185 -1242 -440 -175 -1059 -419 -1375 -543 -706 -276 -687 -268 -696 -303
-37 -149 213 -584 629 -1094 290 -355 763 -848 1032 -1075 274 -232 468 -358
572 -372 76 -10 76 -10 37 139 -107 410 -325 951 -645 1607 -82 167 -148 306
-146 307 2 2 22 -22 44 -54 110 -155 1286 -1790 1303 -1812 20 -25 -111 215
-223 410 -233 406 -676 1139 -854 1413 l-83 128 62 29 c59 28 64 29 79 12 9
-9 321 -442 694 -962 616 -860 729 -1015 683 -940 -8 14 -79 140 -158 280
-267 475 -661 1132 -943 1575 -79 123 -93 151 -81 158 9 5 17 7 18 5 2 -1 308
-428 680 -948 372 -520 686 -956 697 -970 25 -31 18 -18 -161 300 -264 468
-662 1133 -933 1555 -89 138 -94 151 -76 159 10 5 21 7 23 5 2 -2 313 -436
691 -964 378 -528 692 -964 698 -970 6 -5 -1 10 -15 35 -14 25 -85 151 -158
280 -266 472 -654 1119 -922 1534 -60 93 -107 170 -106 171 6 5 47 25 51 25 3
0 7 -8 9 -18 4 -15 1323 -1862 1379 -1932 l21 -25 -15 25 c-8 14 -79 140 -157
280 -267 476 -638 1096 -927 1548 -68 106 -123 197 -123 202 0 21 16 8 41 -33
27 -43 1303 -1822 1340 -1867 25 -31 0 16 -171 319 -260 461 -649 1110 -901
1503 -98 152 -106 169 -89 178 15 8 19 5 24 -15 5 -21 1332 -1881 1373 -1925
31 -33 -381 693 -584 1030 -156 258 -386 629 -505 813 -59 93 -108 172 -108
177 0 51 77 -51 715 -941 378 -527 690 -959 692 -959 3 0 -3 12 -13 28 -10 15
-84 144 -164 287 -266 473 -665 1139 -918 1533 -51 78 -92 146 -92 151 0 5 9
11 19 14 20 5 102 -107 1114 -1523 148 -206 276 -382 284 -390 9 -8 7 -2 -4
15 -11 17 -78 134 -148 260 -239 429 -669 1146 -960 1603 -43 67 -76 124 -74
126 15 13 47 15 52 3 7 -17 1374 -1926 1394 -1947 8 -8 2 8 -15 35 -16 28 -85
149 -152 270 -234 417 -653 1117 -934 1557 -58 92 -106 172 -106 178 0 19 15
10 37 -25 33 -50 1344 -1878 1356 -1890 5 -5 -2 10 -16 35 -205 365 -277 492
-435 760 -194 329 -482 800 -645 1055 -59 92 -92 154 -87 159 6 5 11 8 13 5 2
-2 311 -434 687 -959 376 -525 690 -962 698 -970 16 -17 6 3 -158 295 -233
415 -664 1132 -926 1542 -57 89 -104 167 -104 172 0 9 38 26 45 19 2 -1 303
-421 669 -933 367 -511 676 -941 687 -955 26 -32 -3 21 -171 320 -238 421
-643 1095 -913 1520 -81 126 -85 135 -65 143 11 4 22 6 24 5 1 -2 313 -437
693 -967 380 -530 691 -961 691 -958 0 5 -208 375 -313 557 -226 393 -577 973
-785 1298 -51 79 -92 147 -92 152 0 12 32 22 41 13 7 -8 1016 -1414 1258
-1754 69 -98 128 -175 130 -173 2 2 -1 9 -7 16 -5 7 -81 139 -167 293 -287
510 -653 1121 -928 1550 -53 82 -93 153 -90 158 3 5 11 3 18 -5 7 -7 315 -436
684 -953 370 -517 680 -951 691 -965 28 -36 -321 583 -485 860 -161 273 -470
779 -608 995 -60 94 -93 153 -87 159 5 5 11 8 14 5 4 -5 1354 -1892 1379
-1929 41 -60 6 7 -154 291 -293 519 -661 1132 -940 1565 -94 147 -96 152 -75
162 21 9 62 -45 694 -927 369 -515 687 -958 707 -986 19 -27 35 -45 35 -39 0
5 -4 14 -9 20 -5 5 -77 131 -161 279 -280 497 -675 1155 -953 1590 l-96 150
26 13 c13 8 26 12 28 10 1 -2 302 -421 669 -933 366 -511 675 -941 686 -955
21 -27 -112 216 -243 445 -228 398 -623 1050 -844 1395 -66 102 -78 127 -66
134 10 5 20 3 28 -5 7 -8 320 -444 695 -969 375 -525 687 -959 693 -965 6 -5
-1 10 -15 35 -14 25 -87 155 -163 290 -256 456 -638 1093 -917 1530 -54 85
-100 159 -101 163 -1 5 24 19 55 32 l58 23 537 -741 c295 -408 613 -848 706
-977 173 -239 206 -282 170 -220 -11 19 -53 98 -93 175 -251 480 -638 1152
-976 1693 l-104 167 42 18 c23 10 50 19 59 20 13 1 224 -284 729 -983 392
-542 714 -987 717 -990 14 -13 -290 552 -435 810 -213 379 -478 823 -683 1147
l-77 122 80 32 c78 31 80 31 98 13 9 -10 325 -444 700 -964 376 -520 690 -952
698 -960 8 -8 -14 39 -48 105 -282 539 -658 1192 -1005 1747 -63 101 -111 186
-107 190 4 4 41 20 84 36 l76 30 69 -97 c277 -385 1327 -1838 1335 -1846 11
-11 -19 45 -220 420 -236 439 -513 916 -819 1408 -68 110 -123 202 -123 206 0
7 123 56 135 54 4 -1 317 -431 696 -955 379 -524 699 -964 710 -978 l20 -25
-19 35 c-11 19 -50 94 -87 165 -244 466 -593 1075 -933 1623 -79 129 -142 235
-140 236 17 14 110 38 117 30 5 -5 298 -409 651 -899 354 -490 670 -927 703
-972 32 -46 61 -83 62 -83 2 0 -9 24 -25 53 -213 402 -296 554 -428 787 -169
300 -446 764 -620 1040 l-110 175 37 17 c20 10 41 18 48 18 6 0 327 -438 713
-972 387 -535 707 -977 712 -983 25 -25 -338 646 -527 975 -163 284 -379 644
-544 909 -56 90 -99 167 -94 171 4 4 34 17 65 28 l57 21 702 -972 c386 -535
706 -976 712 -982 5 -5 -2 10 -16 35 -13 25 -69 128 -122 230 -264 498 -606
1090 -921 1593 -90 144 -111 184 -100 192 18 13 154 60 159 55 4 -6 1186
-1640 1321 -1827 87 -120 117 -155 78 -90 -10 17 -52 95 -92 172 -246 471
-615 1111 -952 1649 -65 104 -118 190 -118 191 0 2 34 15 76 31 64 23 77 25
89 13 8 -8 316 -430 685 -939 369 -509 679 -936 691 -950 42 -52 -255 502
-474 885 -171 299 -296 510 -490 825 -93 151 -171 278 -173 281 -2 4 21 15 52
27 l55 20 23 -32 c13 -17 338 -465 721 -996 384 -531 696 -960 694 -955 -2 6
-35 69 -73 140 -329 619 -643 1166 -1000 1739 -64 104 -114 192 -109 196 4 4
34 17 65 29 l57 20 25 -32 c13 -17 328 -453 700 -967 372 -514 685 -946 696
-960 22 -27 23 -29 -135 270 -248 467 -559 1006 -872 1509 -91 145 -161 267
-156 270 10 9 205 82 208 79 2 -2 318 -439 704 -973 386 -533 711 -981 722
-995 43 -54 -260 511 -494 919 -154 269 -429 728 -585 976 -75 119 -97 162
-87 167 7 4 52 22 100 39 85 30 88 30 105 12 9 -10 333 -457 720 -993 387
-536 707 -979 713 -985 19 -20 -257 496 -431 805 -187 333 -466 801 -684 1149
-69 111 -97 165 -69 135 5 -5 296 -380 646 -834 350 -454 643 -831 650 -839
29 -31 -110 556 -202 849 -274 877 -629 1369 -1087 1509 -37 12 -71 21 -75 20
-3 0 -181 -60 -396 -133z"/>
</g>
</svg>
