<?xml version="1.0" standalone="no"?>
<!DOCTYPE svg PUBLIC "-//W3C//DTD SVG 20010904//EN"
 "http://www.w3.org/TR/2001/REC-SVG-20010904/DTD/svg10.dtd">
<svg version="1.0" xmlns="http://www.w3.org/2000/svg"
 width="1280.000000pt" height="1268.000000pt" viewBox="0 0 1280.000000 1268.000000"
 preserveAspectRatio="xMidYMid meet">
<metadata>
Created by potrace 1.15, written by Peter Selinger 2001-2017
</metadata>
<g transform="translate(0.000000,1268.000000) scale(0.100000,-0.100000)"
fill="#000000" stroke="none">
<path d="M4105 12665 c-263 -34 -503 -153 -698 -344 -172 -169 -285 -369 -342
-608 -22 -89 -25 -126 -25 -278 0 -152 3 -189 25 -279 25 -106 81 -254 117
-316 140 -236 314 -405 535 -521 29 -15 53 -25 53 -22 0 3 10 -1 23 -10 66
-43 321 -96 468 -97 37 0 91 -5 120 -10 30 -6 68 -13 84 -15 17 -3 66 -23 110
-45 67 -32 97 -55 176 -137 102 -105 197 -224 268 -331 52 -81 291 -565 498
-1012 100 -216 131 -283 208 -445 26 -55 77 -165 112 -245 36 -80 71 -156 78
-170 39 -72 82 -175 108 -260 25 -81 30 -116 34 -240 4 -125 2 -158 -16 -235
-12 -49 -26 -124 -32 -165 -5 -41 -12 -82 -15 -92 -8 -26 14 -24 193 24 138
36 172 42 268 42 100 1 116 -2 175 -28 35 -15 84 -46 109 -67 24 -22 46 -37
49 -35 4 5 -142 341 -158 361 -4 6 -42 89 -85 185 -43 96 -92 207 -110 245
-65 137 -106 227 -164 358 -32 72 -67 148 -77 167 -26 52 -29 59 -99 214 -35
79 -83 183 -106 232 -83 178 -122 262 -189 409 -38 83 -75 164 -83 180 -42 84
-311 656 -366 778 -93 205 -125 472 -82 682 26 126 48 191 118 335 46 97 115
264 112 273 -1 1 7 38 17 82 25 108 26 320 1 425 -9 41 -19 85 -21 97 -3 12
-16 54 -31 94 -75 209 -215 413 -368 537 -143 116 -324 218 -418 237 -9 2 -38
11 -65 20 -64 22 -250 45 -343 44 -42 -1 -116 -7 -166 -14z m444 -329 c107
-33 174 -63 253 -117 319 -216 476 -604 398 -984 -20 -96 -27 -117 -80 -226
-68 -142 -170 -256 -312 -351 -193 -129 -410 -184 -630 -158 -403 46 -715 328
-813 734 -74 303 22 637 246 857 114 113 245 191 409 244 82 27 160 34 310 30
108 -3 152 -9 219 -29z"/>
<path d="M1115 9644 c-11 -2 -58 -11 -105 -20 -47 -9 -110 -25 -140 -36 -30
-10 -63 -21 -72 -23 -33 -7 -199 -94 -266 -139 -140 -94 -310 -292 -390 -454
-173 -349 -181 -765 -21 -1109 53 -113 162 -263 262 -360 167 -161 349 -259
597 -320 106 -26 412 -26 520 0 110 26 196 55 280 95 135 63 176 80 256 108
43 15 93 29 109 31 17 1 54 8 84 13 68 13 193 13 257 1 27 -5 68 -12 91 -16
58 -8 156 -43 304 -108 127 -55 156 -68 324 -147 50 -23 151 -69 225 -102 74
-33 162 -72 195 -88 114 -54 216 -101 350 -160 143 -63 151 -67 205 -94 19
-10 114 -53 210 -96 96 -43 211 -94 255 -115 44 -20 103 -47 130 -60 28 -13
91 -41 140 -63 93 -41 150 -67 345 -157 63 -29 156 -71 205 -93 50 -22 131
-59 180 -82 50 -23 170 -78 267 -121 98 -43 186 -83 195 -88 10 -6 43 -21 73
-35 30 -13 181 -82 335 -151 154 -70 321 -145 370 -167 95 -42 208 -94 238
-109 10 -5 78 -36 152 -69 135 -60 236 -106 350 -160 33 -16 116 -53 185 -83
69 -30 159 -70 200 -90 41 -19 143 -65 225 -102 142 -63 188 -84 338 -154 34
-16 152 -70 262 -119 307 -138 522 -235 610 -277 44 -20 160 -73 257 -116 98
-43 186 -83 195 -88 43 -21 158 -74 288 -131 193 -85 247 -110 268 -121 9 -5
98 -45 198 -89 99 -44 191 -88 205 -96 13 -9 24 -13 24 -9 0 3 15 -2 33 -13
17 -11 104 -51 192 -90 145 -64 194 -86 375 -169 30 -14 96 -43 145 -65 94
-41 208 -93 238 -109 9 -5 97 -45 195 -88 97 -43 213 -95 257 -116 44 -20 103
-47 130 -60 28 -13 91 -41 140 -63 50 -22 116 -51 147 -66 31 -14 59 -26 62
-26 10 0 7 57 -4 86 -14 36 -44 65 -105 101 -97 58 -270 166 -297 184 -14 11
-28 19 -31 19 -3 0 -81 48 -174 106 -92 58 -184 115 -203 125 -19 11 -62 37
-95 59 -33 22 -67 43 -75 47 -8 3 -45 26 -82 50 -37 24 -69 43 -72 43 -3 0
-51 29 -106 65 -55 36 -103 65 -105 65 -2 0 -50 29 -105 65 -55 36 -103 65
-105 65 -3 0 -29 15 -58 34 -72 47 -254 159 -297 184 -19 11 -91 54 -160 97
-169 104 -284 175 -350 215 -65 40 -171 104 -220 135 -19 12 -64 40 -100 62
-36 22 -112 69 -170 105 -58 36 -119 73 -137 84 -35 21 -187 114 -353 216 -58
36 -130 80 -160 98 -90 55 -163 101 -192 121 -15 11 -30 19 -33 19 -4 0 -38
20 -76 45 -38 25 -72 45 -74 45 -3 0 -50 29 -105 65 -55 36 -103 65 -105 65
-3 0 -36 19 -73 43 -36 23 -74 47 -84 52 -10 6 -84 51 -165 101 -82 50 -173
106 -203 124 -30 19 -77 48 -105 65 -27 18 -84 52 -125 77 -41 25 -124 76
-185 113 -60 38 -142 88 -182 111 -40 24 -103 62 -140 85 -74 46 -207 127
-238 146 -11 6 -85 52 -165 101 -80 49 -170 104 -200 122 -30 19 -78 48 -106
66 -117 75 -141 84 -230 84 -79 0 -171 -15 -379 -62 -49 -11 -103 -22 -120
-25 -16 -2 -52 -11 -80 -19 -77 -23 -230 -43 -330 -43 -102 0 -258 20 -325 42
-25 8 -57 17 -71 21 -14 3 -42 12 -62 21 -20 8 -39 15 -42 15 -3 0 -27 11 -55
25 -27 14 -107 50 -177 81 -123 53 -239 106 -276 125 -9 5 -151 72 -315 148
-521 243 -1076 515 -1224 600 -210 121 -343 254 -424 425 -52 109 -75 217 -84
401 -7 121 -15 181 -33 247 -31 106 -91 236 -154 331 -73 110 -235 267 -358
344 -36 23 -235 123 -235 119 0 -3 -19 4 -42 14 -24 10 -54 21 -68 23 -14 3
-71 15 -127 26 -94 19 -283 27 -348 15z m303 -319 c34 -8 76 -17 93 -20 43 -8
206 -85 274 -131 87 -57 161 -129 225 -220 75 -106 100 -155 139 -278 28 -86
32 -114 34 -225 3 -166 -1 -200 -30 -301 -98 -335 -338 -571 -673 -661 -121
-33 -317 -33 -445 0 -386 98 -670 410 -716 785 -23 187 10 395 88 551 92 183
263 348 442 426 36 16 73 33 81 38 17 9 195 48 250 55 52 6 167 -3 238 -19z
m5187 -2848 c58 -33 76 -53 111 -121 33 -64 35 -163 4 -232 -43 -92 -152 -164
-250 -164 -66 0 -149 38 -202 92 -63 65 -95 159 -78 232 21 93 61 150 137 195
83 48 193 48 278 -2z"/>
<path d="M6365 6447 c-59 -28 -77 -47 -104 -107 -25 -54 -26 -101 -5 -163 29
-87 29 -87 195 79 82 82 149 152 149 155 0 14 -95 52 -139 56 -34 3 -59 -2
-96 -20z"/>
<path d="M6486 6221 c-87 -87 -146 -153 -142 -160 27 -42 171 -60 231 -29 34
18 87 72 104 105 20 39 14 150 -11 194 -12 22 -24 39 -27 39 -4 0 -73 -67
-155 -149z"/>
<path d="M6270 5695 c0 -7 67 -123 108 -187 21 -32 100 -155 177 -275 77 -119
142 -222 145 -228 3 -6 26 -42 51 -80 25 -39 95 -146 154 -240 99 -156 137
-215 260 -405 23 -36 89 -139 147 -230 193 -303 411 -644 466 -730 62 -97 92
-143 182 -285 117 -184 192 -300 221 -342 16 -23 29 -44 29 -48 0 -4 13 -25
29 -48 29 -42 104 -158 221 -342 106 -168 134 -211 286 -448 38 -59 90 -140
115 -180 49 -77 135 -211 204 -317 23 -36 176 -274 340 -530 462 -719 438
-684 503 -735 31 -25 62 -45 69 -45 35 0 17 76 -47 200 -35 67 -171 349 -290
600 -86 182 -157 329 -320 665 -45 94 -126 262 -180 375 -149 313 -205 429
-301 626 -48 100 -144 300 -212 445 -69 145 -163 343 -210 439 -47 96 -128
267 -180 380 -52 113 -130 277 -172 365 -42 88 -111 234 -152 325 -181 397
-243 502 -376 638 -120 122 -255 211 -382 252 -22 7 -53 18 -70 25 -16 7 -57
23 -90 35 -71 27 -139 57 -255 112 -188 90 -462 218 -466 218 -2 0 -4 -2 -4
-5z"/>
</g>
</svg>
